<?xml version="1.0" encoding="utf-8"?>
<!-- Generator: Adobe Illustrator 27.6.1, SVG Export Plug-In . SVG Version: 6.00 Build 0)  -->
<svg version="1.1" xmlns="http://www.w3.org/2000/svg" xmlns:xlink="http://www.w3.org/1999/xlink" x="0px" y="0px"
	 viewBox="0 0 750 500" style="enable-background:new 0 0 750 500;" xml:space="preserve">
<style type="text/css">
	.st0{fill:#263238;stroke:#263238;stroke-width:2.5;stroke-linecap:round;stroke-linejoin:round;stroke-miterlimit:10;}
	.st1{fill:none;stroke:#263238;stroke-width:2.5;stroke-linecap:round;stroke-linejoin:round;stroke-miterlimit:10;}
	.st2{fill:#EC644E;stroke:#263238;stroke-width:2.5;stroke-linecap:round;stroke-linejoin:round;stroke-miterlimit:10;}
	.st3{fill:#FFFFFF;stroke:#263238;stroke-width:2.5;stroke-linecap:round;stroke-linejoin:round;stroke-miterlimit:10;}
	.st4{fill:#9ABAE3;stroke:#263238;stroke-width:2.5;stroke-linecap:round;stroke-linejoin:round;stroke-miterlimit:10;}
	.st5{fill:#9ABAE3;}
	.st6{fill:#FFFFFF;}
	.st7{fill:#EC644E;}
	.st8{fill:none;}
	.st9{fill:#263238;}
	.st10{fill:none;stroke:#9ABAE3;stroke-width:2.5;stroke-linecap:round;stroke-linejoin:round;stroke-miterlimit:10;}
	.st11{fill:none;stroke:#FFFFFF;stroke-width:2.5;stroke-linecap:round;stroke-linejoin:round;stroke-miterlimit:10;}
	.st12{fill:none;stroke:#EC644E;stroke-width:2.5;stroke-linecap:round;stroke-linejoin:round;stroke-miterlimit:10;}
	.st13{fill:#FCD8C3;}
	.st14{fill:#FCD8C3;stroke:#263238;stroke-width:2.5;stroke-linecap:round;stroke-linejoin:round;stroke-miterlimit:10;}
</style>
<g id="Shadows">
	<ellipse class="st0" cx="339.7" cy="422.9" rx="190.4" ry="11"/>
	<ellipse class="st0" cx="447.1" cy="396.1" rx="190.4" ry="15.9"/>
</g>
<g id="Table">
	<path class="st1" d="M285.1,384.2c93.1,0.1,185.4,0.1,278.6,0"/>
	<path class="st1" d="M33,384.2c101.6,0,202.1,0.1,302.5,0.1c87.2,0,174.4,0,262.2,0c0.4,0,0.8,0,1.1,0c39.2,0,78.5,0,118.1,0"/>
</g>
<g id="Plant_2">
	<rect x="559.8" y="184.7" class="st2" width="128" height="11.7"/>
	<g>
		<path class="st3" d="M600.9,184.7h31.7c11.6-5.8,19.6-17.9,19.6-31.8c0-6.4-1.7-12.4-4.7-17.6H586c-3,5.2-4.7,11.2-4.7,17.6
			C581.3,166.8,589.3,178.9,600.9,184.7z"/>
		<g>
			<path class="st1" d="M608.9,135.3c-19.8-23.7-17.5,29.9-16.5,49.5c0.7,13.7,3,27.6,2.7,41.4c-0.3,11.6-2.8,22.8-3.2,34.4
				c-0.4,9.8-0.4,21.4,2.4,30.6"/>
			<path class="st4" d="M592.2,142.7c-1.6,2.5-4,3.8-5.3,3s-1-3.5,0.7-6c1.6-2.5,4-3.8,5.3-3C594.2,137.6,593.9,140.3,592.2,142.7z"
				/>
			<path class="st4" d="M590.3,160c-1.6,2.5-4,3.8-5.3,3c-1.3-0.8-1-3.5,0.7-6c1.6-2.5,4-3.8,5.3-3
				C592.2,154.8,591.9,157.5,590.3,160z"/>
			<path class="st4" d="M590.3,179.3c-1.6,2.5-4,3.8-5.3,3c-1.3-0.8-1-3.5,0.7-6s4-3.8,5.3-3C592.2,174.1,591.9,176.8,590.3,179.3z"
				/>
			<path class="st4" d="M590.3,201.7c-1.6,2.5-4,3.8-5.3,3c-1.3-0.8-1-3.5,0.7-6s4-3.8,5.3-3C592.2,196.6,591.9,199.3,590.3,201.7z"
				/>
			<path class="st4" d="M592.2,218.5c-1.6,2.5-4,3.8-5.3,3c-1.3-0.8-1-3.5,0.7-6c1.6-2.5,4-3.8,5.3-3S593.9,216,592.2,218.5z"/>
			<path class="st4" d="M591.8,235.4c-1.6,2.5-4,3.8-5.3,3c-1.3-0.8-1-3.5,0.7-6c1.6-2.5,4-3.8,5.3-3
				C593.8,230.2,593.5,232.9,591.8,235.4z"/>
			<path class="st4" d="M589.9,253.7c-1.6,2.5-4,3.8-5.3,3c-1.3-0.8-1-3.5,0.7-6c1.6-2.5,4-3.8,5.3-3
				C591.8,248.5,591.5,251.2,589.9,253.7z"/>
			<path class="st4" d="M590.3,271.2c-1.6,2.5-4,3.8-5.3,3c-1.3-0.8-1-3.5,0.7-6c1.6-2.5,4-3.8,5.3-3
				C592.2,266,591.9,268.7,590.3,271.2z"/>
			<path class="st4" d="M598.1,289.8c0.2,3-0.8,5.5-2.4,5.6c-1.5,0.1-2.9-2.2-3.2-5.2c-0.2-3,0.8-5.5,2.4-5.6
				C596.4,284.5,597.8,286.8,598.1,289.8z"/>
			<path class="st4" d="M596.9,138.3c1.6,2.5,4,3.8,5.3,3c1.3-0.8,1-3.5-0.7-6c-1.6-2.5-4-3.8-5.3-3
				C595,133.1,595.3,135.8,596.9,138.3z"/>
			<path class="st4" d="M593.8,151.8c1.6,2.5,4,3.8,5.3,3c1.3-0.8,1-3.5-0.7-6c-1.6-2.5-4-3.8-5.3-3
				C591.9,146.6,592.2,149.3,593.8,151.8z"/>
			<path class="st4" d="M593.2,170c1.6,2.5,4,3.8,5.3,3c1.3-0.8,1-3.5-0.7-6c-1.6-2.5-4-3.8-5.3-3
				C591.3,164.8,591.6,167.5,593.2,170z"/>
			<path class="st4" d="M593,192.1c1.6,2.5,4,3.8,5.3,3c1.3-0.8,1-3.5-0.7-6c-1.6-2.5-4-3.8-5.3-3
				C591.1,186.9,591.3,189.6,593,192.1z"/>
			<path class="st4" d="M596,211.8c1.6,2.5,4,3.8,5.3,3c1.3-0.8,1-3.5-0.7-6c-1.6-2.5-4-3.8-5.3-3
				C594.1,206.6,594.4,209.3,596,211.8z"/>
			<path class="st4" d="M598,228.3c1.6,2.5,4,3.8,5.3,3c1.3-0.8,1-3.5-0.7-6c-1.6-2.5-4-3.8-5.3-3
				C596.1,223.1,596.4,225.8,598,228.3z"/>
			<path class="st4" d="M596,244.8c1.6,2.5,4,3.8,5.3,3c1.3-0.8,1-3.5-0.7-6c-1.6-2.5-4-3.8-5.3-3
				C594.1,239.6,594.4,242.3,596,244.8z"/>
			<path class="st4" d="M593.8,261.3c1.6,2.5,4,3.8,5.3,3c1.3-0.8,1-3.5-0.7-6c-1.6-2.5-4-3.8-5.3-3
				C591.9,256.1,592.2,258.8,593.8,261.3z"/>
			<path class="st4" d="M593.8,277.8c1.6,2.5,4,3.8,5.3,3c1.3-0.8,1-3.5-0.7-6c-1.6-2.5-4-3.8-5.3-3
				C591.9,272.6,592.2,275.3,593.8,277.8z"/>
		</g>
		<g>
			<path class="st1" d="M620.8,135.3c6.1-7,15.9-8,24.8-6c7.2,2,11.2,9,12.8,17c4.8,27-1.6,48-2.4,74c0,6,2.4,12,2.7,18.4"/>
			<path class="st4" d="M655.6,131.9c-2.9,0.7-5.5,0-5.9-1.5c-0.3-1.5,1.7-3.2,4.6-3.9c2.9-0.7,5.5,0,5.9,1.5
				C660.6,129.5,658.5,131.3,655.6,131.9z"/>
			<path class="st4" d="M654.5,144.6c-1.6,2.5-4,3.8-5.3,3c-1.3-0.8-1-3.5,0.7-6s4-3.8,5.3-3C656.5,139.5,656.2,142.2,654.5,144.6z"
				/>
			<path class="st4" d="M658.3,160c-1.6,2.5-4,3.8-5.3,3c-1.3-0.8-1-3.5,0.7-6c1.6-2.5,4-3.8,5.3-3
				C660.2,154.8,659.9,157.5,658.3,160z"/>
			<path class="st4" d="M658.3,174.5c-1.6,2.5-4,3.8-5.3,3c-1.3-0.8-1-3.5,0.7-6c1.6-2.5,4-3.8,5.3-3
				C660.2,169.4,659.9,172.1,658.3,174.5z"/>
			<path class="st4" d="M657.5,188.6c-1.6,2.5-4,3.8-5.3,3c-1.3-0.8-1-3.5,0.7-6c1.6-2.5,4-3.8,5.3-3
				C659.5,183.4,659.2,186.1,657.5,188.6z"/>
			<path class="st4" d="M656,204.2c-1.6,2.5-4,3.8-5.3,3c-1.3-0.8-1-3.5,0.7-6c1.6-2.5,4-3.8,5.3-3C658,199,657.7,201.7,656,204.2z"
				/>
			<path class="st4" d="M654.6,215.9c-1.6,2.5-4,3.8-5.3,3c-1.3-0.8-1-3.5,0.7-6c1.6-2.5,4-3.8,5.3-3
				C656.5,210.7,656.2,213.4,654.6,215.9z"/>
			<path class="st4" d="M656,234.7c-1.6,2.5-4,3.8-5.3,3c-1.3-0.8-1-3.5,0.7-6c1.6-2.5,4-3.8,5.3-3C658,229.5,657.7,232.2,656,234.7
				z"/>
			<path class="st4" d="M659.7,149.4c1.6,2.5,4,3.8,5.3,3c1.3-0.8,1-3.5-0.7-6c-1.6-2.5-4-3.8-5.3-3
				C657.7,144.2,658,146.9,659.7,149.4z"/>
			<path class="st4" d="M661.6,164.7c1.6,2.5,4,3.8,5.3,3c1.3-0.8,1-3.5-0.7-6s-4-3.8-5.3-3C659.7,159.5,660,162.2,661.6,164.7z"/>
			<path class="st4" d="M661.6,179.3c1.6,2.5,4,3.8,5.3,3c1.3-0.8,1-3.5-0.7-6s-4-3.8-5.3-3C659.7,174.1,660,176.8,661.6,179.3z"/>
			<path class="st4" d="M660.5,196.1c1.6,2.5,4,3.8,5.3,3c1.3-0.8,1-3.5-0.7-6c-1.6-2.5-4-3.8-5.3-3
				C658.6,190.9,658.9,193.6,660.5,196.1z"/>
			<path class="st4" d="M658.8,209.4c1.6,2.5,4,3.8,5.3,3c1.3-0.8,1-3.5-0.7-6c-1.6-2.5-4-3.8-5.3-3
				C656.9,204.2,657.2,206.9,658.8,209.4z"/>
			<path class="st4" d="M657.8,226.7c1.6,2.5,4,3.8,5.3,3c1.3-0.8,1-3.5-0.7-6s-4-3.8-5.3-3C655.9,221.5,656.2,224.2,657.8,226.7z"
				/>
			<path class="st4" d="M657.4,245.1c0.2,3,1.6,5.3,3.2,5.2c1.5-0.1,2.6-2.6,2.4-5.6c-0.2-3-1.6-5.3-3.2-5.2
				C658.2,239.7,657.2,242.2,657.4,245.1z"/>
		</g>
		<g>
			<path class="st1" d="M610,135.3c24.1-23.7,22.6,28.7,21.4,48.4c-0.9,13.7-3.7,27.6-3.3,41.4c0.3,11.6,3.4,22.8,3.9,34.4
				c0.5,9.8,0.5,21.4-2.9,30.6"/>
			<path class="st4" d="M625.1,137.4c-1.6,2.5-4,3.8-5.3,3c-1.3-0.8-1-3.5,0.7-6c1.6-2.5,4-3.8,5.3-3S626.8,134.9,625.1,137.4z"/>
			<path class="st4" d="M628.9,150.8c-1.6,2.5-4,3.8-5.3,3c-1.3-0.8-1-3.5,0.7-6c1.6-2.5,4-3.8,5.3-3
				C630.8,145.6,630.5,148.3,628.9,150.8z"/>
			<path class="st4" d="M630.5,166.5c-1.6,2.5-4,3.8-5.3,3s-1-3.5,0.7-6c1.6-2.5,4-3.8,5.3-3S632.2,164.1,630.5,166.5z"/>
			<path class="st4" d="M630,185.8c-1.6,2.5-4,3.8-5.3,3c-1.3-0.8-1-3.5,0.7-6c1.6-2.5,4-3.8,5.3-3
				C631.9,180.6,631.6,183.3,630,185.8z"/>
			<path class="st4" d="M628.7,198.3c-1.6,2.5-4,3.8-5.3,3c-1.3-0.8-1-3.5,0.7-6c1.6-2.5,4-3.8,5.3-3
				C630.6,193.2,630.3,195.9,628.7,198.3z"/>
			<path class="st4" d="M627,215.5c-1.6,2.5-4,3.8-5.3,3c-1.3-0.8-1-3.5,0.7-6c1.6-2.5,4-3.8,5.3-3C629,210.4,628.7,213.1,627,215.5
				z"/>
			<path class="st4" d="M626.8,235.4c-1.6,2.5-4,3.8-5.3,3c-1.3-0.8-1-3.5,0.7-6s4-3.8,5.3-3C628.8,230.2,628.5,232.9,626.8,235.4z"
				/>
			<path class="st4" d="M629.1,253.7c-1.6,2.5-4,3.8-5.3,3c-1.3-0.8-1-3.5,0.7-6c1.6-2.5,4-3.8,5.3-3
				C631.1,248.5,630.8,251.2,629.1,253.7z"/>
			<path class="st4" d="M630.6,272.7c-1.6,2.5-4,3.8-5.3,3c-1.3-0.8-1-3.5,0.7-6c1.6-2.5,4-3.8,5.3-3
				C632.5,267.5,632.2,270.2,630.6,272.7z"/>
			<path class="st4" d="M631,142.1c1.6,2.5,4,3.8,5.3,3c1.3-0.8,1-3.5-0.7-6c-1.6-2.5-4-3.8-5.3-3
				C629.1,136.9,629.4,139.6,631,142.1z"/>
			<path class="st4" d="M633.2,157.3c1.6,2.5,4,3.8,5.3,3c1.3-0.8,1-3.5-0.7-6c-1.6-2.5-4-3.8-5.3-3
				C631.2,152.1,631.5,154.8,633.2,157.3z"/>
			<path class="st4" d="M633.6,176.3c1.6,2.5,4,3.8,5.3,3c1.3-0.8,1-3.5-0.7-6c-1.6-2.5-4-3.8-5.3-3
				C631.7,171.1,632,173.8,633.6,176.3z"/>
			<path class="st4" d="M632.4,192.1c1.6,2.5,4,3.8,5.3,3c1.3-0.8,1-3.5-0.7-6c-1.6-2.5-4-3.8-5.3-3
				C630.5,186.9,630.8,189.6,632.4,192.1z"/>
			<path class="st4" d="M630.8,208.2c1.6,2.5,4,3.8,5.3,3c1.3-0.8,1-3.5-0.7-6c-1.6-2.5-4-3.8-5.3-3
				C628.9,203.1,629.2,205.7,630.8,208.2z"/>
			<path class="st4" d="M629.3,224.6c1.6,2.5,4,3.8,5.3,3c1.3-0.8,1-3.5-0.7-6s-4-3.8-5.3-3C627.4,219.4,627.7,222.1,629.3,224.6z"
				/>
			<path class="st4" d="M631.3,244.2c1.6,2.5,4,3.8,5.3,3c1.3-0.8,1-3.5-0.7-6c-1.6-2.5-4-3.8-5.3-3
				C629.3,239,629.6,241.7,631.3,244.2z"/>
			<path class="st4" d="M633.5,261.8c1.6,2.5,4,3.8,5.3,3c1.3-0.8,1-3.5-0.7-6c-1.6-2.5-4-3.8-5.3-3
				C631.6,256.6,631.9,259.3,633.5,261.8z"/>
			<path class="st4" d="M633.5,279c1.6,2.5,4,3.8,5.3,3c1.3-0.8,1-3.5-0.7-6c-1.6-2.5-4-3.8-5.3-3
				C631.6,273.9,631.9,276.6,633.5,279z"/>
			<path class="st4" d="M626.3,290c-0.9,2.8-0.4,5.5,1.1,6c1.5,0.5,3.4-1.5,4.2-4.3c0.9-2.8,0.4-5.5-1.1-6
				C629.1,285.3,627.2,287.2,626.3,290z"/>
		</g>
	</g>
</g>
<g id="Plant_1">
	<g>
		<g>
			<path class="st5" d="M148.8,336.3c-7.2,5.5-27.7,4.3-27.7,4.3s5.1-18.9,12.3-24.4c7.2-5.5,20.7,0.1,20.7,0.1
				S156,330.8,148.8,336.3z"/>
		</g>
		<g>
			<path class="st6" d="M154.1,316.3c0,0-13.5-5.6-20.7-0.1c-1.4,1.1-2.8,2.7-4,4.7c0.2-0.2,0.5-0.4,0.7-0.6
				c7.2-5.5,20.7,0.1,20.7,0.1s1.2,9.5-2.1,16.1c0,0,0.1-0.1,0.1-0.1C156,330.8,154.1,316.3,154.1,316.3z"/>
		</g>
		<g>
			<path class="st1" d="M148.8,336.3c-7.2,5.5-27.7,4.3-27.7,4.3s5.1-18.9,12.3-24.4c7.2-5.5,20.7,0.1,20.7,0.1
				S156,330.8,148.8,336.3z"/>
		</g>
		<g>
			<path class="st5" d="M93.9,336.3c7.2,5.5,27.7,4.3,27.7,4.3s-5.1-18.9-12.3-24.4c-7.2-5.5-20.7,0.1-20.7,0.1
				S86.7,330.8,93.9,336.3z"/>
		</g>
		<g>
			<path class="st6" d="M90.7,321.5c0,0,13.5-5.6,20.7-0.1c3.1,2.4,5.8,7.2,7.9,11.9c-2.2-6-5.7-13.9-10-17.2
				c-7.2-5.5-20.7,0.1-20.7,0.1s-1.4,10.6,2.7,17.1C89.9,327.6,90.7,321.5,90.7,321.5z"/>
		</g>
		<g>
			<path class="st1" d="M93.9,336.3c7.2,5.5,27.7,4.3,27.7,4.3s-5.1-18.9-12.3-24.4c-7.2-5.5-20.7,0.1-20.7,0.1
				S86.7,330.8,93.9,336.3z"/>
		</g>
		<g>
			<path class="st5" d="M134.4,317.4c0,9.1-13.4,24.7-13.4,24.7s-11.9-15.5-11.9-24.6c0-9.1,12.6-16.4,12.6-16.4
				S134.4,308.4,134.4,317.4z"/>
		</g>
		<g>
			<path class="st6" d="M122.7,306.7c0,0,8.5,4.9,11.6,11.7c0-0.3,0.1-0.7,0.1-1c0-9.1-12.7-16.4-12.7-16.4s-12.6,7.4-12.6,16.4
				c0,1.7,0.4,3.5,1.1,5.5C110.3,314,122.7,306.7,122.7,306.7z"/>
		</g>
		<g>
			<path class="st1" d="M134.4,317.4c0,9.1-13.4,24.7-13.4,24.7s-11.9-15.5-11.9-24.6c0-9.1,12.6-16.4,12.6-16.4
				S134.4,308.4,134.4,317.4z"/>
		</g>
		<g>
			<g>
				<g>
					<polygon class="st7" points="138.9,384.2 102.7,384.2 95,340.7 146.6,340.7 					"/>
				</g>
				<g>
					<path class="st6" d="M145.9,345l0.8-4.3H95l7.8,43.5h4.9l-3.5-19.8h40.3c0.1-1.5,0.4-2.9,0.8-4.3h-41.8l-2.7-15.1H145.9z"/>
				</g>
				<g>
					<polygon class="st1" points="138.9,384.2 102.7,384.2 95,340.7 146.6,340.7 					"/>
				</g>
			</g>
			<g>
				<line class="st1" x1="97" y1="348.8" x2="144.8" y2="348.8"/>
			</g>
		</g>
	</g>
</g>
<g id="Mug">
	<path class="st0" d="M682.4,463c0,3.3-22.1,6-49.3,6c-27.2,0-49.3-2.7-49.3-6c0-3.3,22.1-6,49.3-6C660.4,457,682.4,459.7,682.4,463
		z"/>
	<g>
		<g>
			<g>
				<path class="st5" d="M653.1,425.2c-0.1-2-0.3-4-0.6-6c-0.5-3.5-1.3-6.9-2.4-10.1h-0.1c0.1,0.2,0.1,0.3,0.1,0.5
					c0,1.2-2,2.3-5.5,3.2c-5.4,1.4-14.2,2.3-24.2,2.3s-18.8-0.9-24.2-2.3c-3.5-0.9-5.5-2-5.5-3.2c0-0.2,0-0.3,0.1-0.5h-0.1
					c-2,5.8-3,12.2-3,18.9c0,10.4,2.6,20,6.9,27.6c3.4,6,9.8,9.6,16.7,9.6h18.2c6.9,0,13.3-3.6,16.7-9.6c0.3-0.6,2.4-4.9,3-6.4
					c0.2-0.4,0.3-0.8,0.4-1.2c2.2-6,3.4-12.8,3.4-20C653.1,427.1,653.1,426.2,653.1,425.2z"/>
				<g>
					<path class="st6" d="M626,415.1c10,0,18.8-0.9,24.2-2.3c0.3-0.1,0.6-0.2,0.9-0.2c-0.3-1.2-0.6-2.3-1-3.4h-0.1
						c0.1,0.2,0.1,0.3,0.1,0.5c0,1.2-2,2.3-5.5,3.2c-4.9,1.3-12.6,2.1-21.4,2.3C624.1,415.1,625.1,415.1,626,415.1z"/>
					<path class="st6" d="M600.2,455.7c-4.3-7.6-6.9-17.2-6.9-27.6c0-5.5,0.7-10.7,2-15.5c-2.9-0.8-4.7-1.9-4.7-2.9
						c0-0.2,0-0.3,0.1-0.5h-0.1c-2,5.8-3,12.2-3,18.9c0,10.4,2.6,20,6.9,27.6c3.4,6,9.8,9.6,16.7,9.6h5.7
						C610,465.3,603.6,461.7,600.2,455.7z"/>
				</g>
				<path class="st1" d="M653.1,425.2c-0.1-2-0.3-4-0.6-6c-0.5-3.5-1.3-6.9-2.4-10.1h-0.1c0.1,0.2,0.1,0.3,0.1,0.5
					c0,1.2-2,2.3-5.5,3.2c-5.4,1.4-14.2,2.3-24.2,2.3s-18.8-0.9-24.2-2.3c-3.5-0.9-5.5-2-5.5-3.2c0-0.2,0-0.3,0.1-0.5h-0.1
					c-2,5.8-3,12.2-3,18.9c0,10.4,2.6,20,6.9,27.6c3.4,6,9.8,9.6,16.7,9.6h18.2c6.9,0,13.3-3.6,16.7-9.6c0.3-0.6,2.4-4.9,3-6.4
					c0.2-0.4,0.3-0.8,0.4-1.2c2.2-6,3.4-12.8,3.4-20C653.1,427.1,653.1,426.2,653.1,425.2z"/>
				<path class="st4" d="M649.9,409.1c-1.3-2.8-14-5-29.6-5c-15.5,0-28.3,2.2-29.6,5c-0.1,0.2-0.1,0.3-0.1,0.5c0,1.2,2,2.3,5.5,3.2
					c5.4,1.4,14.2,2.3,24.2,2.3s18.8-0.9,24.2-2.3c3.5-0.9,5.5-2,5.5-3.2C650,409.4,650,409.3,649.9,409.1z"/>
			</g>
			<path class="st0" d="M644.5,412.8c-5.4,1.4-14.2,2.3-24.2,2.3c-10,0-18.8-0.9-24.2-2.3c1.6-2.2,11.8-3.9,24.2-3.9
				C632.7,408.8,643,410.5,644.5,412.8z"/>
		</g>
		<g>
			<path class="st8" d="M649.7,448.1c1.2,1.4,2.9,2.8,4.4,3.1c5,1,10.5-4.6,12-12.2c1.5-7.6-1.5-14.8-6.5-15.8
				c-2.1-0.4-4.5,0.5-6.5,2c0,0.9,0.1,1.9,0.1,2.8C653.1,435.2,651.9,442,649.7,448.1z"/>
			<path class="st4" d="M660.6,417.6c-2.9-0.6-5.4,0.1-8.1,1.5c0,0,0,0.1,0,0.1c0.3,2,0.5,4,0.6,6c1.9-1.5,4.4-2.4,6.5-2
				c5,1,8,8.2,6.5,15.8c-1.5,7.6-6.9,13.2-12,12.2c-1.7-0.3-3.2-1.4-4.4-3c-0.1,0.4-0.3,0.7-0.5,1.1c-0.6,1.6-1.3,3.1-2.1,4.6
				c1.7,1.5,3.6,2.6,5.8,3c0.7,0.1,1.5,0.2,2.2,0.2c7.5,0,14.6-7.1,16.5-16.9C673.8,429.3,668.8,419.2,660.6,417.6z"/>
			<path class="st4" d="M649.7,448.1c-0.1,0.4-0.3,0.8-0.4,1.2c0.2-0.4,0.3-0.7,0.5-1.1c1.1,1.6,2.6,2.7,4.4,3
				C652.5,450.9,650.8,449.5,649.7,448.1z"/>
			<path class="st4" d="M647.1,453.8C647.1,453.8,647.1,453.8,647.1,453.8c0.8-1.4,1.5-2.9,2.2-4.5
				C648.6,450.8,647.9,452.3,647.1,453.8z"/>
		</g>
	</g>
</g>
<g id="Speech_bubble">
	<g>
		<g>
			<g>
				<g>
					<polygon class="st6" points="509.1,133.1 509.6,133.1 493.1,143.4 493,142.9 					"/>
				</g>
				<path class="st3" d="M463,46.1h85.4c7.9,0,14.4,6.5,14.4,14.4v49.6c0,7.9-6.5,14.4-14.4,14.4h-31l-19.3,15c-2,1.5-4.8,0-4.7-2.5
					l0.8-12.5H463c-7.9,0-14.4-6.5-14.4-14.4V60.4C448.7,52.5,455.1,46.1,463,46.1z"/>
			</g>
		</g>
		<g>
			<g>
				<path class="st7" d="M478.4,88.3V87h3.3V62.8h-1.5c-1.7,0-3.1,0.6-4.1,1.7c-1,1.1-1.9,3-2.7,5.7h-1.1l0.3-8.7h25l0.3,8.7h-1.1
					c-0.8-2.8-1.7-4.7-2.7-5.8s-2.4-1.6-4.2-1.6h-1.4V87h3.3v1.3H478.4z"/>
			</g>
			<line class="st1" x1="505.7" y1="61.6" x2="541.9" y2="61.6"/>
			<line class="st1" x1="505.7" y1="73.8" x2="541.9" y2="73.8"/>
			<line class="st1" x1="505.7" y1="86" x2="541.9" y2="86"/>
			<line class="st1" x1="469.6" y1="98.3" x2="541.9" y2="98.3"/>
			<line class="st1" x1="469.6" y1="108.7" x2="541.9" y2="108.7"/>
		</g>
	</g>
</g>
<g id="Elements">
	<g>
		<g>
			<g>
				<path class="st3" d="M209.1,107.6c-4.3-14.1-19.7-21.8-33.7-16.5c-11.7,4.5-18.5,17.1-15.8,29.4c1.8,8.3,7.4,14.6,14.4,17.8
					c4,1.8,8.4,9.4,9.7,13.6l0,0c1.5,5,6.9,7.9,12,6.4l3.9-1.2c5-1.5,7.9-6.9,6.4-12l0,0c-1.3-4.2-2-12.8,0.4-16.5
					C210,122.6,211.3,115,209.1,107.6z"/>
				<g>
					<path class="st3" d="M195.5,158.3c-1.4,0.4-2.8,0.5-4.1,0.3c0.1,0.3,0.2,0.5,0.3,0.7l0,0c0.8,2.6,3.6,4.1,6.2,3.3l2-0.6
						c2.6-0.8,4.1-3.6,3.3-6.2c-0.1-0.2-0.1-0.5-0.2-0.7c-1,0.9-2.2,1.6-3.6,2L195.5,158.3z"/>
					<path class="st0" d="M193.4,145c-4,1.2-8,1.8-11.9,2c1,1.8,1.7,3.5,2.1,4.9l0,0c1.1,3.7,4.3,6.2,7.9,6.7
						c1.3,0.2,2.7,0.1,4.1-0.3l3.9-1.2c1.4-0.4,2.6-1.1,3.6-2c2.7-2.4,3.9-6.3,2.8-9.9c-0.4-1.4-0.8-3.4-1-5.5
						C201.2,142,197.3,143.8,193.4,145z"/>
				</g>
			</g>
			<path class="st1" d="M195.9,144.2c-0.2-0.5-4.2-11-3.9-17.6c0.3-6.6,3.5-7.6,4.7-7.7c3-0.2,2.1,3,0.9,3.9c-1.3,0.9-6.1,3-11-0.4
				c-5-3.4-3.6-6.3-2-6.7c0.8-0.2,2.6,0.6,2.9,2.7c0.2,2.1,0.5,5.7-4.9,8.8c-5.4,3.1-8.3,1.1-7.4-0.6c1-1.7,3.6-2.2,5.5-0.8
				c1.9,1.4,4.2,4.4,5.9,8.4s4.5,11.8,4.5,11.8"/>
		</g>
		<g>
			
				<ellipse transform="matrix(0.4474 -0.8943 0.8943 0.4474 51.4048 313.7846)" class="st3" cx="279.6" cy="115.3" rx="22" ry="22"/>
			
				<ellipse transform="matrix(0.8334 -0.5526 0.5526 0.8334 -17.1396 173.7237)" class="st3" cx="279.6" cy="115.3" rx="16.3" ry="16.3"/>
			<polyline class="st3" points="279.6,107.4 279.6,117.4 271.6,115.3 			"/>
		</g>
		<g>
			<g>
				<path class="st3" d="M187.5,175.1c-1.4-1.5-3.8-1.6-5.2-0.1c-1.2,1.2-4.7,4.4-8.2,7.5c-3.5,3.3-7,6.5-8.3,7.5
					c-1.6,1.3-1.8,3.7-0.4,5.2c0,0,0,0,0,0c6.1,6.7,13.8,13.4,22.3,12.9c2.7-0.2,5.7-0.7,7.4-2.5c1.9-1.5,2.8-4.5,3.2-7.1
					C199.6,190.1,193.7,181.8,187.5,175.1C187.6,175.1,187.6,175.1,187.5,175.1z"/>
				<g>
					<path class="st9" d="M185.7,186.2c-0.8,0.7-1.8,1.2-2.8,1.3c-0.2,0-0.3,0.3-0.2,0.5c0,0,0,0,0,0c1.3,1.4,3.4,1.5,4.8,0.2
						c1.4-1.3,1.5-3.4,0.2-4.8c0,0,0,0,0,0c-0.2-0.2-0.5-0.1-0.5,0.1C187,184.5,186.5,185.5,185.7,186.2z"/>
					<path class="st9" d="M176.7,194.5c-0.8,0.7-1.8,1.2-2.8,1.3c-0.2,0-0.3,0.3-0.2,0.5c0,0,0,0,0,0c1.3,1.4,3.4,1.5,4.8,0.2
						c1.4-1.3,1.5-3.4,0.2-4.8c0,0,0,0,0,0c-0.2-0.2-0.5-0.1-0.5,0.1C178,192.8,177.5,193.7,176.7,194.5z"/>
				</g>
				<path class="st3" d="M188.6,198.4c0.8-0.7,1.6-1.3,2.5-1.7c0.6-0.3,0.8-1.1,0.3-1.6c-0.2-0.3-0.5-0.5-0.9-0.7
					c-1.4-0.9-3.3-0.9-4.7,0c-2.3,1.5-2.6,4.6-0.8,6.6c0,0,0,0,0,0c0.5,0.5,1.3,0.4,1.6-0.2C187.2,200,187.8,199.2,188.6,198.4z"/>
			</g>
			<g>
				<path class="st3" d="M242,184.8c0.7-1.9-0.5-4-2.4-4.6c-1.6-0.4-6.1-2-10.6-3.6c-4.5-1.5-9-3-10.5-3.6c-1.9-0.8-4.1,0.2-4.7,2.2
					c0,0,0,0,0,0c-2.9,8.5-5,18.5-0.5,25.7c1.4,2.3,3.4,4.7,5.8,5.2c2.2,1,5.2,0.3,7.8-0.7C234.7,202.6,239.1,193.4,242,184.8
					C242,184.9,242,184.8,242,184.8z"/>
				<g>
					<path class="st9" d="M219.7,185.2c1,0.4,1.9,1,2.5,1.9c0.1,0.2,0.4,0.2,0.5-0.1c0,0,0,0,0,0c0.6-1.8-0.4-3.7-2.1-4.3
						c-1.8-0.6-3.7,0.4-4.3,2.1c0,0,0,0,0,0c-0.1,0.2,0.1,0.4,0.4,0.4C217.6,184.8,218.7,184.8,219.7,185.2z"/>
					<path class="st9" d="M231.2,189.1c1,0.4,1.9,1,2.5,1.9c0.1,0.2,0.4,0.2,0.5-0.1c0,0,0,0,0,0c0.6-1.8-0.4-3.7-2.1-4.3
						c-1.8-0.6-3.7,0.4-4.3,2.1c0,0,0,0,0,0c-0.1,0.2,0.1,0.4,0.4,0.4C229.1,188.7,230.2,188.7,231.2,189.1z"/>
				</g>
				<path class="st3" d="M223.1,194.2c-1-0.3-1.9-0.8-2.7-1.4c-0.6-0.4-1.3-0.2-1.6,0.5c-0.1,0.3-0.2,0.7-0.2,1.1
					c-0.1,1.7,0.8,3.3,2.3,4.1c2.4,1.3,5.3,0,6.1-2.5c0,0,0,0,0,0c0.2-0.6-0.3-1.3-0.9-1.3C225.1,194.7,224.1,194.5,223.1,194.2z"/>
			</g>
		</g>
		<path class="st10" d="M256.2,283.8c0,0-6.5-49.8,13.1-71c23.4-25.5,2.7-59-10.6-75.5c-11.2-13.9-11.7-30.8-1-42.1
			c14.9-15.9,33.5-6.7,33.5-6.7"/>
		<path class="st11" d="M309,108.2c-1.6-7.2-5.7-13.1-12-17"/>
		<path class="st12" d="M150.9,114.4c-0.4-7.4,1.9-14.2,6.9-19.7"/>
		<path class="st10" d="M307.6,108.6c-1.3-7.3-5-13.4-11.2-17.6"/>
		<path class="st10" d="M117.9,176c2.7-2.5,5.8-4.4,9.3-5.7"/>
		<path class="st12" d="M243.3,277.3c0,0-12.2-21.8-9.6-50c2.6-28.2,23.1-27.4,25.1-19.1c4.6,18.8-49.9,18-54.4-9.1
			c-4-23.9,8.5-30.3,11.3-40c2.2-7.6-2.7-17.5-2-21.9c2.8-17.1,7.2-19.7,4.9-32.6c-5.9-32.7-42-28.1-50.3-21.9"/>
		<path class="st10" d="M236.8,290.3c0,0-8-23.5-23.1-34.7c-31.1-23.2-37.2,16.4-28.1,25.1c8.2,7.8,27.9-10.6-15.5-29.7
			c-22-9.7-24.1-27.1-17.6-35.5c7.4-9.6,8.6-18.2,6.4-26.8c-4.9-19.2-24.8-20-24.8-20"/>
		<path class="st2" d="M181.4,216.4c-4,0.9-6.5,5.5-5.4,10.2c-1.1-4.7-5.2-7.8-9.3-6.9c-4,0.9-6.5,5.5-5.4,10.2
			c0.7,3.3,9.5,9.5,14.9,13c2.3,1.5,5.1,0.9,6.6-1.5c3.3-5.5,8.6-14.9,7.8-18.2C189.6,218.5,185.5,215.5,181.4,216.4z"/>
		<path class="st4" d="M286.7,174.5c0,0-2.3-10,6.3-18.9c8.6-8.9,18.1-1.6,15.3,6.4c-1.2,3.4-3.2,4.7-5.2,5.2
			c-5.5,1.3-10.8,3.3-15.3,6.5L286.7,174.5z"/>
		<path class="st4" d="M147.9,243c0,0-10.2,1.5-18.3-7.8c-8.2-9.3-0.2-18.1,7.6-14.7c3.2,1.4,4.5,3.6,4.8,5.6
			c0.8,5.6,2.4,11,5.3,15.8L147.9,243z"/>
		<path class="st4" d="M270.5,196.1c0,0,2.3-10-6.3-18.9c-8.6-8.9-18.1-1.6-15.3,6.4c1.2,3.4,3.2,4.7,5.2,5.2
			c5.5,1.3,10.8,3.3,15.3,6.5L270.5,196.1z"/>
		<path class="st2" d="M230.2,168.8c0,0-2.3-10,6.3-18.9c8.6-8.9,18.1-1.6,15.3,6.4c-1.2,3.4-3.2,4.7-5.2,5.2
			c-5.5,1.3-10.8,3.3-15.3,6.5L230.2,168.8z"/>
		<path class="st2" d="M169.8,171.6c0,0,2.3-10-6.3-18.9c-8.6-8.9-18.1-1.6-15.3,6.4c1.2,3.4,3.2,4.7,5.2,5.2
			c5.5,1.3,10.8,3.3,15.3,6.5L169.8,171.6z"/>
		<path class="st3" d="M141.7,209.2l-5.5-2.6c-0.9-0.4-1.9-0.4-2.8,0.1l-5.3,3c-2.2,1.2-4.8-0.5-4.5-3l0.8-6c0.1-1-0.2-2-1-2.6
			l-4.5-4.1c-1.9-1.7-1-4.7,1.5-5.2l6-1.1c1-0.2,1.8-0.8,2.2-1.7l2.5-5.6c1-2.3,4.2-2.4,5.4-0.2l2.9,5.3c0.5,0.9,1.3,1.4,2.3,1.6
			l6,0.6c2.5,0.3,3.6,3.2,1.9,5.1l-4.2,4.4c-0.7,0.7-1,1.7-0.8,2.7l1.3,5.9C146.4,208.3,143.9,210.3,141.7,209.2z"/>
	</g>
</g>
<g id="Character">
	<g>
		<path class="st7" d="M570.4,294.4l0.1,0.3c0,0,0,0,0,0C570.5,294.6,570.5,294.5,570.4,294.4C570.4,294.4,570.4,294.4,570.4,294.4
			C570.4,294.4,570.4,294.4,570.4,294.4z"/>
		<path class="st7" d="M586.4,286.3c-0.1,0-0.1-0.1-0.2-0.1c-5.1-2.4-15.8,8.1-15.8,8.1c-13.3,12.3-37.3,20.7-54.1,17.8l-9.5-1.6
			c-3.1-0.5-6.2-0.8-9.3-0.8c-0.1,0.1-0.1,0.1-0.2,0.3c1.3,3.6,11.2,19.7,15.5,26.7c1.3,2,2,3.3,2,3.3l-40.8,14.6
			c0,0-19.7-8.1-27-3.7c-2.6,1.6-2.1,1.8-2.7,2.3c-0.8-0.8-6.3-2.9-12.3-2c-4.3,0.7-7.7,4.3-7.7,4.3s-6.6-3.7-13-2
			c-2.5,0.7-6.8,4.9-9.3,10.3c-3.1,6.6-0.7,15-2.3,14.3c-0.2-0.1-0.7,9.3-28.2,7.4c-10.3-0.7-25.6-0.8-36-0.8
			c0.1-0.2,0.1-0.4,0.2-0.6c0-0.1,0.1-0.3,0.1-0.4c0,0,0,0,0,0c4-10.1,6.4-21.5,7.8-32.3c1-6.1,1.4-10.6,1.3-13.6c0-0.2,0-0.5,0-0.7
			c0,0,0-0.1,0-0.1v0c0.3-4.5,0.4-8.7,0.4-12.6c0-2.4,0-4.6,0-6.6c-0.1-8-0.6-13.1-0.6-13.1l-20.2,4.9c-7.4,1.8-26.5-1.3-26.5-1.3
			c-8-1.4-11.4-1.5-17.3,0.6c-2.5,0.9-4.9,1.9-7.4,2.9l-4,1.5c0,0-0.2-1.7-0.2-4.6c0-4,0.4-10.2,2.2-17.1c2.6-10.1,9-22,8.8-27.8
			c0-0.3,0-0.5-0.1-0.8c-0.3-1.6-0.4-3.2-0.4-4.9c0.1-15.1,10.6-33.7,20-43.3c7.2-7.4,14.7-12.4,20.1-15.2
			c2.1-1.1,21.2-8.6,21.2-8.6c16.3-14.7,35-16.5,35-16.5s17.5-8.5,30-6.9c23.3,3.1,52,13,74.4,14.5c47,3.2,63.3,27.2,65.9,32.8
			C558.9,241.3,581.8,277.2,586.4,286.3z"/>
		<path class="st8" d="M345,336.6c-0.3,4.6-0.7,9.4-1.3,14.3C344.7,344.3,345.1,339.5,345,336.6z"/>
		<path class="st8" d="M335.9,383.3C335.9,383.3,335.9,383.2,335.9,383.3c-0.4,1.1-0.9,2.1-1.3,3.2
			C335.1,385.4,335.6,384.4,335.9,383.3z"/>
		<path class="st13" d="M345,336.6l-0.1-32.5l-20.2,4.9c-7.4,1.8-26.5-1.3-26.5-1.3c-7.9-2-10.9-1.2-17.3,0.6c0,0-4.4,20.4-4.4,20.4
			c0.1-0.2-10.7,49.9-10.7,49.9c9.4,4.2,61.2,11.4,66.6,12c2.2,0.2,10.3-26.6,11.3-39.6C344.3,346,344.7,341.2,345,336.6L345,336.6z
			"/>
		<path class="st6" d="M291.1,306.6c-3.4-0.1-6.1,0.6-10.2,1.7c0,0-4.4,20.4-4.4,20.4c0.1-0.2-10.7,49.9-10.7,49.9
			c2,0.9,5.9,1.9,10.8,3c0.2-0.4,0.5-0.9,0.7-1.3c-1.5-0.4-2.7-0.8-3.5-1.2c0,0,10.8-50.2,10.7-49.9c0,0,4.4-20.4,4.4-20.4
			c0.8-0.2,1.6-0.4,2.3-0.6C291.2,307.6,291.1,307.1,291.1,306.6z"/>
		<path class="st1" d="M345,336.6l-0.1-32.5l-20.2,4.9c-7.4,1.8-26.5-1.3-26.5-1.3c-7.9-2-10.9-1.2-17.3,0.6c0,0-4.4,20.4-4.4,20.4
			c0.1-0.2-10.7,49.9-10.7,49.9c9.4,4.2,61.2,11.4,66.6,12c2.2,0.2,10.3-26.6,11.3-39.6C344.3,346,344.7,341.2,345,336.6L345,336.6z
			"/>
		<path class="st14" d="M343.7,350.9c-1.3,8.2-3.8,19-7.8,32.3C339.9,373.1,342.3,361.8,343.7,350.9z"/>
		<path class="st6" d="M339.9,396.9C340,396.9,340,396.9,339.9,396.9c1.5-2.5,2.8-5.1,3.9-7.8c0.5-1,1-2.1,1.3-3.2c0,0,0,0,0,0
			c4-10.1,4.1-12.9,5.5-23.8c0.7-4.4,0.5-27.7,0.2-42.3c-0.1-7.8-0.9-15.6-2.2-23.4l-3.7-21.1c0.3,5.7,0.7,49.4,0,61.2
			c0.1,2.9-0.3,7.7-1.3,14.3c-1.4,10.9-3.8,22.2-7.8,32.3c0,0,0,0,0,0c-0.3,1.1-0.8,2.2-1.3,3.2c-1.2,2.7-2.5,5.3-3.9,7.8
			c0,0,0,0,0,0l-2.4,8.9c0,0,5.1-2.8,11.5-5.5L339.9,396.9z"/>
		<path class="st6" d="M401.2,166.7c-11.7,0.6-25,7-25,7s-18.8,1.8-35,16.5c0,0-19.1,7.6-21.2,8.6c-5.4,2.7-12.8,7.7-20.1,15.1
			c-10.5,10.7-22.3,32.6-19.7,48.3c0.9,5.5-6,18.1-8.7,28.7c-3.1,12-2,21.7-2,21.7l4-1.5c1.7-0.7,3.5-1.4,5.2-2
			c0.1-3.9,0.6-9.4,2.2-15.5c2.7-10.6,9.6-23.2,8.7-28.7c-2.6-15.7,9.2-37.6,19.7-48.3c7.2-7.4,14.7-12.4,20.1-15.1
			c2.1-1.1,21.2-8.6,21.2-8.6c16.3-14.7,35-16.5,35-16.5s6.5-3.2,14.4-5.3C400.2,169.6,400.6,168.1,401.2,166.7z"/>
		<path class="st1" d="M600,374.2c0,0.1,0,0.2,0,0.3c-0.2,3.7-0.5,6.9-1.4,9.8c-76.5,0-156,0-231.8,0h-31.2c0.1-0.3,0.2-0.6,0.3-1
			c0,0,0,0,0,0c4-10.1,6.4-21.5,7.8-32.3c0.9-5.7,1.3-10,1.3-13c0-0.3,0-0.5,0-0.8v0c0-0.1,0-0.3,0-0.4c0.3-4.3,0.4-8.4,0.5-12.1
			c0-2.4,0-4.6,0-6.6c-0.1-8.4-0.6-13.7-0.6-13.7l-20.2,4.9c-7.4,1.8-26.5-1.3-26.5-1.3c-8-1.4-11.4-1.6-17.3,0.6
			c-2.5,0.9-4.9,1.9-7.4,2.9l-4,1.5c0,0-0.2-1.5-0.2-4c0-3.9,0.3-10.4,2.2-17.7c2.5-9.8,8.6-21.3,8.8-27.3c0-0.5,0-1-0.1-1.4
			c-0.2-1.4-0.3-2.9-0.4-4.3c0.1-15.1,10.6-33.7,20-43.3c7.2-7.4,14.7-12.4,20.1-15.2c2.1-1.1,21.2-8.6,21.2-8.6
			c16.3-14.7,35-16.5,35-16.5s17.5-8.5,30-6.9c23.3,3.1,52,13,74.4,14.5c47,3.2,63.3,27.2,65.9,32.8c12.4,26.6,35.3,62.5,39.9,71.6
			c-0.1,0-0.1-0.1-0.2-0.1c-5.1-2.4-15.8,8.1-15.8,8.1c0.2,0.5,1.3,3.2,3.1,7.4c0.1,0.3,0.2,0.6,0.4,0.9c0.1,0.2,0.2,0.5,0.3,0.7
			c0.1,0.3,0.3,0.6,0.4,0.9c0,0.1,0.1,0.2,0.1,0.2c0.1,0.3,0.3,0.6,0.4,0.9c0.1,0.3,0.2,0.6,0.4,0.9c0.1,0.2,0.2,0.4,0.3,0.6
			c0.7,1.5,1.3,3.2,2.1,4.9c0.2,0.4,0.4,0.9,0.5,1.3c0.1,0.3,0.2,0.5,0.3,0.8c0.2,0.5,0.4,1,0.6,1.5c0.6,1.5,1.3,3.1,1.9,4.7
			c0.2,0.4,0.4,0.9,0.6,1.4c0.2,0.6,0.5,1.2,0.8,1.8c0.1,0.3,0.2,0.6,0.3,0.8c0.6,1.5,1.2,3,1.8,4.5c0.2,0.4,0.4,0.9,0.5,1.3
			c0.1,0.4,0.3,0.7,0.5,1.1c0.2,0.4,0.4,0.9,0.5,1.3c0.5,1.2,1,2.4,1.4,3.5c0.2,0.5,0.4,1,0.6,1.6c0.4,1.1,0.9,2.2,1.3,3.3
			c0.2,0.5,0.4,1,0.6,1.5c0,0.1,0,0.1,0.1,0.2c0.3,0.7,0.6,1.4,0.9,2.2c2.2,5.5,4.2,10.5,5.7,14.7c0.3,0.9,0.7,1.7,1,2.6
			c0.6,2,2,9.9,2.1,12.1C600,374.1,600,374.1,600,374.2z"/>
		<path class="st3" d="M149.1,403.8c0,0,42.3-6.8,68.5-5.7c28.8,1.2,68.9,10.5,68.9,10.5l-1.5,17.6c0,0-59.3-9.6-82.3-9.6
			s-53.7,4.4-53.7,4.4V403.8z"/>
		<polygon class="st2" points="354.5,410.5 285.1,426.2 286.6,408.6 349,395 		"/>
		<path class="st2" d="M287.1,404.8c-0.3,1.3-0.5,2.5-0.5,3.8l38.5-8.4c-7-2.2-12.7-3.6-16.1-3.8
			C294.9,395.4,289.2,401.4,287.1,404.8z"/>
		<path class="st3" d="M287.1,404.8c1.7-6.7,7.7-13.6,14-15.1c2-0.5,4.2-1,6.5-1.6c-18.5-2.8-37.9-5.3-46.2-4.9
			c-17.8,1-105.2,19.5-105.2,19.5s42.6-4.2,67.5-3.8c22.7,0.3,62.9,9.6,62.9,9.6l-0.5-1.6C286.1,407,286.3,406.1,287.1,404.8z"/>
		<path class="st1" d="M281,401.3c0,0-31-5.4-44.1-6.3c-8.8-0.7-17.1-0.4-17.1-0.4"/>
		<line class="st1" x1="285.1" y1="395.9" x2="282.2" y2="395.4"/>
		<path class="st3" d="M408.5,369.8c-12.8-1.8-72,11.6-103.2,19c-2.4,0.6-4.5,1.1-6.5,1.6c-6.3,1.5-12.3,8.4-14,15.1
			c2.1-3.4,7.8-9.4,21.9-8.4c3.4,0.2,9,1.6,16.1,3.8c33.7,10.4,109.6,36.3,109.6,36.3s23.6-8.7,42.1-12.7
			c26.4-5.7,42.8-6.4,42.8-6.4S426.1,372.3,408.5,369.8z"/>
		<path class="st3" d="M286.1,407l0.5,1.6c0-1.2,0.2-2.5,0.5-3.8C286.3,406.1,286.1,407,286.1,407z"/>
		<path class="st14" d="M345,336.6c1.1-18.3-0.1-32.5-0.1-32.5L345,336.6L345,336.6z"/>
		<path class="st1" d="M344.4,274.4c-1,2.9,0.3,22.7,0.5,29.7"/>
		<path class="st13" d="M600,374.2c0.8,27-101.3,23.9-101.6,23.9c-2.1-0.1-13-0.2-20.4-0.7c-7.2-0.4-28.6-5.6-29.7-3.8
			c-9.2,15-14.6,2.6-15.9-0.4c-0.7-1.6,0.2-4.6,0.5-5.5c-0.2,0.5-0.6,1.6-1.3,2.9c-1.4,2.5-3.9,5.7-7.4,6.2c0,0,0,0,0,0
			c-0.2,0-0.5,0-0.7,0c-0.9,0-1.6-0.1-2.3-0.2c-3.3-0.8-4.6-3.4-5.1-4.7c-0.2-0.5-0.2-0.7-0.2-0.7s-8.4,7.6-13.7,4
			c-0.1,0-0.1-0.1-0.1-0.1c-1.8-1.7-2.5-11.5-1.8-20.2c0.4-5.1,1.3-9.8,2.7-12.1c0.3-0.4,0.5-0.8,0.8-1.2c1.4-2.2,2.9-4.1,4.3-5.5
			c1.3-1.3,2.5-2.2,3.6-2.6c0.2-0.1,0.3-0.1,0.5-0.2c6.4-1.7,12.7,1.9,12.7,1.9s1.9-3.7,9.7-3.9c6.1-0.1,8.4,1.3,9.2,2
			c0.5-0.5,1.8-1.4,4.4-3c0.3-0.2,0.7-0.4,1-0.5c0.2-0.1,0.4-0.2,0.5-0.2c0.2-0.1,0.4-0.2,0.6-0.2c8.4-3.2,24.6-2.5,24.6-2.5
			l39.7-5.7c0,0-0.3-2.6-1.6-4.6c-3.9-6.4-12.4-20.1-14.9-25.4c-0.3-0.5-0.5-1-0.6-1.3c0.1-0.1,0.1-0.1,0.2-0.3
			c2.6,0,5.2,0.2,7.8,0.5c0.5,0.1,1,0.1,1.5,0.2l9.5,1.6c16.7,2.9,40.8-5.5,54.1-17.8c0.2,0.5,1.3,3.2,3.1,7.4
			C582.5,322.4,599.4,352.2,600,374.2z"/>
		<path class="st6" d="M548.4,336.4c-2.9,6.3-71.3,18.1-71.3,18.1s-7.3-2-15.3-2s-21.3,6-21.3,6s0.7-1.3-6.7-2
			c-7.3-0.7-12,3.3-12,3.3s-0.7,0-7.3,0c-2.9,0-7.1,0.8-10.8,1.7c1.4-2.2,2.9-4.1,4.3-5.5c1.3-1.3,2.5-2.2,3.6-2.6
			c0.2-0.1,0.3-0.1,0.5-0.2c6.4-1.7,12.7,1.9,12.7,1.9s1.9-3.7,9.7-3.9c6.1-0.1,8.4,1.3,9.2,2c0.5-0.5,1.8-1.4,4.4-3
			c0.3-0.2,0.7-0.4,1-0.5c0.2-0.1,0.4-0.2,0.5-0.2c0.2-0.1,0.4-0.2,0.6-0.2c8.4-3.2,24.6-2.5,24.6-2.5l39.7-5.7c0,0-0.3-2.6-1.6-4.6
			c-3.9-6.4-12.4-20.1-14.9-25.4c-0.3-0.5-0.5-1-0.6-1.3c0.1-0.1,0.1-0.1,0.2-0.3c2.6,0,5.2,0.2,7.8,0.5c0,0,7.7,20.5,13.4,28.9
			C529.9,337.8,549.2,334.6,548.4,336.4z"/>
		<path class="st1" d="M600,374.2c0.8,27-101.3,23.9-101.6,23.9c-2.1-0.1-13-0.2-20.4-0.7c-7.2-0.4-28.5-6.1-29.7-3.8
			c-7.3,13.2-16.1,6.7-15.7-6.2c-1,11.3-9.6,9.9-10.3,9.7c-3.3-0.8-5.3-2-6.3-5.3c-0.1-0.5-0.2-0.7-0.2-0.7s-8.4,7.6-13.7,4
			c-0.1,0-0.1-0.1-0.1-0.1c-2.2-1.7-4.1-9.3-1.8-20.2c0.8-3.9,2.2-8.3,4.3-13c1.2-2.6,2.4-4.5,3.5-5.8c1.2-1.4,2.4-2.2,3.6-2.6
			c0.2-0.1,0.3-0.1,0.5-0.2c6.4-1.7,12.7,1.9,12.7,1.9s1.9-3.7,9.7-3.9c6.1-0.1,8.4,1.3,9.2,2c0.5-0.5,1.8-1.4,4.4-3
			c0.3-0.2,0.7-0.4,1-0.5c0.2-0.1,0.4-0.2,0.5-0.2c0.2-0.1,0.4-0.2,0.6-0.2c8.3-3.2,23.9-2.8,23.9-2.8s41.3-4.6,40-6.7
			c-4-6.4-13.6-23-16.2-28.6c-0.3-0.5-0.5-1-0.6-1.3c0.1-0.1,0.1-0.1,0.2-0.3c3.1,0,6.2,0.2,9.3,0.8l9.5,1.6
			c16.7,2.9,40.8-5.5,54.1-17.8c0.2,0.5,1.3,3.2,3.1,7.4C582.5,322.4,599.4,352.2,600,374.2z"/>
		<path class="st1" d="M415.8,391.1c0,0-3.6-14.3,8.9-35.9"/>
		<path class="st1" d="M432.6,387.5c0,0-3.3-18.4,11-34.1"/>
		<path class="st1" d="M443.1,399.8c1.3-11.6-8.2-12.7-10.2-12.7"/>
		<path class="st1" d="M407.8,395.6c4-18.4-5.7-19-7.7-19"/>
		<path class="st0" d="M277.8,322.3c0-0.4,3-14,3-14s-11.4,2.4-11.4,4.4C269.6,318.5,277.8,322.3,277.8,322.3z"/>
		<path class="st1" d="M448.2,185.6c7.6-6,30.7-4.5,32.3-4.2"/>
		<path class="st1" d="M458.8,268.1c2.8,3.1,10.2,8,13.5,10.6"/>
		<path class="st1" d="M359.8,179.1c-5.8,2.2-16.3,8.9-20.1,17"/>
		<path class="st1" d="M330.1,460.8"/>
		<path class="st0" d="M390.5,94.8c-2.8,0.3-3.7,4.2-1.2,5.6c6,3.4,15.5,9.5,18.7,15.6c4.8,9.1,10.6,7.6,10.6,2.1
			c0-5.5-11.7-19.1-21-22.2C394.8,94.9,392.4,94.7,390.5,94.8z"/>
		<path class="st0" d="M422.5,133.9c1.2,1.3,3.2,1.4,4.5,0.1c1.2-1.3,1.2-3.4,0-4.7c-1.2-1.3-3.2-1.4-4.5-0.1
			C421.2,130.4,421.2,132.5,422.5,133.9z"/>
		<path class="st0" d="M375.1,196.5c3.5,6.3,11.1,6.1,18.2,0.1c0.8-0.7,1.7-1.5,2.5-2.4c0.2-0.3,0.5-0.5,0.7-0.8
			c0.6-0.7,1.1-1.4,1.6-2.1c6.5-8.8,8.9-20.6,5.1-27.3c-2.2-4-6.2-5.4-10.5-4.3c-0.2,0.1-0.4,0.1-0.6,0.2c-0.3,0.1-0.6,0.2-0.9,0.3
			c-3.1,1.1-6.4,3.5-9.4,6.9C374.1,176.1,371,189.2,375.1,196.5z"/>
		<path class="st13" d="M408.8,145c0.2,1.3,0.4,2.7,0.5,4.1c0,0.6,0,1.2,0.1,1.8c0,2-0.1,3.9-0.3,5.7c-2.1,15.4-13.9,27.6-28.9,28.6
			c-17.4,1.2-32.5-13.2-33.8-32c-0.5-7.2,1.1-14.1,4.3-19.8c0.2-0.3,0.4-0.7,0.6-1c0.1-0.2,0.3-0.5,0.4-0.7c0.2-0.4,0.5-0.8,0.7-1.2
			c2-2.9,4.4-5.4,7.1-7.5c0.4-0.3,0.8-0.6,1.2-0.9c0.4-0.3,0.8-0.5,1.2-0.8c0.4-0.2,0.9-0.5,1.3-0.7c2.9-1.6,6.1-2.7,9.4-3.2
			c0.9-0.2,1.9-0.3,2.8-0.3C391.5,116.1,405.7,128.3,408.8,145z"/>
		<path class="st6" d="M355.1,153.2c-0.5-7.2,1.1-14.1,4.3-19.8c0.2-0.3,0.4-0.7,0.6-1c0.1-0.2,0.3-0.5,0.4-0.7
			c0.2-0.4,0.5-0.8,0.7-1.2c2-2.9,4.4-5.4,7.1-7.5c0.4-0.3,0.8-0.6,1.2-0.9c0.4-0.3,0.8-0.5,1.2-0.8c0.4-0.2,0.9-0.5,1.3-0.7
			c2.9-1.6,6.1-2.7,9.4-3.2c0.1,0,0.2,0,0.4-0.1c-2.1-0.3-4.2-0.4-6.3-0.3c-1,0.1-1.9,0.2-2.8,0.3c-3.4,0.5-6.5,1.6-9.4,3.2
			c-0.4,0.2-0.9,0.5-1.3,0.7c-0.4,0.3-0.8,0.5-1.2,0.8c-0.4,0.3-0.8,0.6-1.2,0.9c-2.7,2.1-5.2,4.6-7.1,7.5c-0.3,0.4-0.5,0.8-0.7,1.2
			c-0.2,0.2-0.3,0.5-0.4,0.7c-0.2,0.3-0.4,0.6-0.6,1c-3.2,5.7-4.8,12.6-4.3,19.8c1.3,18.8,16.4,33.1,33.8,32
			c0.8-0.1,1.7-0.1,2.5-0.3C368,182.7,356.2,169.7,355.1,153.2z"/>
		<path class="st1" d="M408.8,145c0.2,1.3,0.4,2.7,0.5,4.1c0,0.6,0,1.2,0.1,1.8c0,2-0.1,3.9-0.3,5.7c-2.1,15.4-13.9,27.6-28.9,28.6
			c-17.4,1.2-32.5-13.2-33.8-32c-0.5-7.2,1.1-14.1,4.3-19.8c0.2-0.3,0.4-0.7,0.6-1c0.1-0.2,0.3-0.5,0.4-0.7c0.2-0.4,0.5-0.8,0.7-1.2
			c2-2.9,4.4-5.4,7.1-7.5c0.4-0.3,0.8-0.6,1.2-0.9c0.4-0.3,0.8-0.5,1.2-0.8c0.4-0.2,0.9-0.5,1.3-0.7c2.9-1.6,6.1-2.7,9.4-3.2
			c0.9-0.2,1.9-0.3,2.8-0.3C391.5,116.1,405.7,128.3,408.8,145z"/>
		<path class="st0" d="M345.2,131.1c-3.2-3.7-2.7-9.4,1.1-12.5c3.7-3.2,9.4-2.7,12.5,1.1c0.8,0.9,1.3,2,1.7,3
			c0.1-0.1,0.2-0.2,0.3-0.2c0.4-0.3,0.8-0.5,1.2-0.8c0.4-0.3,0.8-0.5,1.3-0.8c2.9-1.6,6-2.8,9.4-3.3c0.9-0.2,1.9-0.2,2.8-0.3
			c0.4,0,0.9-0.1,1.4,0c0.5,0,0.9,0,1.4,0c0.5,0,0.9,0,1.4,0.1c0.9,0.1,1.7,0.2,2.6,0.4c0.9,0.2,1.8,0.4,2.7,0.6
			c0.4,0.1,0.8,0.3,1.2,0.4c0.2,0.1,0.4,0.1,0.6,0.2c11.3,4.1,20.3,15,22.8,28.7c0.3,1.4,0.5,2.9,0.6,4.4c0,0.6,0.1,1.3,0.1,1.9
			c0.1,2.1,0,4.1-0.2,6.1c-0.1,0.9-0.2,1.7-0.4,2.6c-8.4-8.7-16.8-14.5-22.1-13.7c-18.6,2.6-35.6-9.3-36.2-14.5
			C349,134,346.8,132.9,345.2,131.1z"/>
		<path class="st0" d="M586.6,286.8c0-0.2-0.1-0.4-0.3-0.5c0,0,0,0,0,0c-0.1,0-0.1-0.1-0.2-0.1c-5.1-2.4-15.8,8.1-15.8,8.1l0.2,0.5
			l3.3,7.8c0,0,10.5-10.1,12.5-14.5C586.6,287.6,586.7,287.2,586.6,286.8C586.6,286.8,586.6,286.8,586.6,286.8z"/>
		<path class="st1" d="M421.4,306.3c0,8.8-14.9,21.2-24.7,21.2"/>
		<path class="st1" d="M513.9,340.3c0,0,15.5-2.4,35.4-4.7"/>
		<path class="st1" d="M464.3,260.4c0,0,7.5,10.5,9.5,22s10.5,26,10.5,26l13.3,1.3"/>
		<path class="st5" d="M409.8,137.3c-1.7-6.4-6.2-13.4-11.2-18.5c-8.7-8.9-31.6-12.4-39.7-5.6c-0.8,0.7-1.5,1.4-1.7,2.4
			c-0.1,0.3-0.1,0.5-0.1,0.7c0.3,2.1,2.2,3.6,4.4,3.4c16.1-2.1,25.9,5.2,30.3,9.7c4,4,6.6,9,7.4,13.5
			C402,139.2,405.8,137.1,409.8,137.3z"/>
		<path class="st6" d="M403.2,137.7c-0.1,0.1-0.1,0.2-0.2,0.2c-0.8-4.5-3.4-9.4-7.4-13.5c-4.4-4.5-14.2-11.8-30.3-9.7
			c-2,0.3-3.8-1.1-4.3-3c-0.8,0.4-1.5,0.8-2.1,1.4c-0.8,0.7-1.5,1.4-1.7,2.4c-0.1,0.3-0.1,0.5-0.1,0.7c0.3,2.1,2.2,3.6,4.4,3.4
			c16.1-2.1,25.9,5.2,30.3,9.7c4,4,6.6,9,7.4,13.5c1.2-1.5,2.5-2.7,4-3.6C403.2,138.7,403.2,138.2,403.2,137.7z"/>
		<path class="st1" d="M409.8,137.3c-1.7-6.4-6.2-13.4-11.2-18.5c-8.7-8.9-31.6-12.4-39.7-5.6c-0.8,0.7-1.5,1.4-1.7,2.4
			c-0.1,0.3-0.1,0.5-0.1,0.7c0.3,2.1,2.2,3.6,4.4,3.4c16.1-2.1,25.9,5.2,30.3,9.7c4,4,6.6,9,7.4,13.5
			C402,139.2,405.8,137.1,409.8,137.3z"/>
		
			<ellipse transform="matrix(0.151 -0.9885 0.9885 0.151 194.2223 534.1926)" class="st5" cx="408.1" cy="154" rx="16.8" ry="12.9"/>
		<path class="st6" d="M399.8,152c1.1-7.4,5.8-13.1,11.3-14.5c-0.2,0-0.3-0.1-0.5-0.1c-7.1-1.1-13.9,5.5-15.3,14.6
			c-1.4,9.2,3.2,17.5,10.2,18.6c1.3,0.2,2.7,0.1,4-0.2C402.8,169.1,398.4,161,399.8,152z"/>
		
			<ellipse transform="matrix(0.151 -0.9885 0.9885 0.151 194.2223 534.1926)" class="st1" cx="408.1" cy="154" rx="16.8" ry="12.9"/>
		<path class="st4" d="M420.9,156c-1,6.7-5.4,11.7-9.8,11c-4.4-0.7-7.1-6.7-6-13.4c1-6.7,5.4-11.7,9.8-11
			C419.2,143.2,421.9,149.2,420.9,156z"/>
		<path class="st14" d="M280.9,366.3c0.9,2.9,3.9,4.7,7,4.1c2.1-0.4,3.8-1.5,4.8-2.1c8.7-5.6,15.1-20.5,4.4-26.3
			c-16.2-8.8-23-3.5-23-3.5l5.2,22.6L280.9,366.3z"/>
		<path class="st1" d="M282.2,366.9c4.6-7.3,12.3-10.7,17.2-7.6"/>
		<path class="st1" d="M280.4,364.5c-0.8-8.6,4.7-15.5,8.2-14.9"/>
		<path class="st5" d="M282,394.9c-10-10.7-20.7-31.2-25.3-45l-20-59.5c-1.8-5.4,1.1-11.2,6.5-13c5.4-1.8,11.2,1.1,13,6.5l24.2,80.7
			C284.2,375.2,282,394.9,282,394.9z"/>
		<path class="st6" d="M263.2,351.4l-20-59.5c-1.8-5.4,1.1-11.2,6.5-13c0.7-0.2,1.5-0.4,2.2-0.5c-2.5-1.6-5.7-2-8.7-1
			c-5.4,1.8-8.3,7.6-6.5,13l20,59.5c4.6,13.8,15.3,34.4,25.3,45c0,0,0.3-2.4,0.5-6C274.5,377.8,266.9,362.4,263.2,351.4z"/>
		<path class="st1" d="M282,394.9c-10-10.7-20.7-31.2-25.3-45l-20-59.5c-1.8-5.4,1.1-11.2,6.5-13c5.4-1.8,11.2,1.1,13,6.5l24.2,80.7
			C284.2,375.2,282,394.9,282,394.9z"/>
		<path class="st13" d="M279.8,359.9c5.8,1,7-4.8,4.5-9.5c-6.1-11.3-35.1-31.5-44.7-21.3c-7.1,7.5-1.2,18.2-1.2,18.2
			s-7.9,3.5-5.2,12.2c1.2,3.9,5.9,10.1,5.9,10.1s-10.3,22,11.8,20.8c8.6-0.5,18.3-2.5,22.5-5.8c4.6-3.6,0.2-10.2,0.2-10.2
			s6.7-0.2,9.9-4.8C286.6,364.9,279.8,359.9,279.8,359.9z"/>
		<path class="st6" d="M256.6,389.9c-22.1,1.2-11.8-20.8-11.8-20.8s-4.7-6.2-5.9-10.1c-2.7-8.6,5.2-12.2,5.2-12.2
			s-5.9-10.7,1.2-18.2c0.9-0.9,1.9-1.6,3.1-2.1c-3.6-0.3-6.8,0.4-9,2.7c-7.1,7.5-1.2,18.2-1.2,18.2s-7.9,3.5-5.2,12.2
			c1.2,3.9,5.9,10.1,5.9,10.1s-10.3,22,11.8,20.8c2.3-0.1,4.7-0.4,7-0.7C257.4,389.8,257,389.9,256.6,389.9z"/>
		<path class="st1" d="M279.8,359.9c5.8,1,7-4.8,4.5-9.5c-6.1-11.3-35.1-31.5-44.7-21.3c-7.1,7.5-1.2,18.2-1.2,18.2
			s-7.9,3.5-5.2,12.2c1.2,3.9,5.9,10.1,5.9,10.1s-10.3,22,11.8,20.8c8.6-0.5,18.3-2.5,22.5-5.8c4.6-3.6,0.2-10.2,0.2-10.2
			s6.7-0.2,9.9-4.8C286.6,364.9,279.8,359.9,279.8,359.9z"/>
		<polyline class="st1" points="259.1,294 233.3,303 239.8,322.4 		"/>
		<path class="st1" d="M282.4,362.5c-16.4-14.3-39-21-45.6-14.1"/>
		<path class="st1" d="M239,369.7c4.3,5.1,25.3,6.6,37,4.4"/>
		<path class="st1" d="M279.8,359.9c-5.9-5.2-9.9-15.3-4.4-19.6"/>
		<path class="st1" d="M324.9,370.4c0-9.2-13.4-19.5-22.3-20.8"/>
		<path class="st14" d="M399.5,379.4l-0.5,10.2c0,0-11,0.5-11.2-5.2c-0.5-10.2,12.8-11.5,12.8-11.5l-0.8,5.3"/>
		<path class="st1" d="M448.5,393.3l8.2-17.4c0,0,7.4,11.3,9.3,13.3c1.1,1.1,2.2,2,3.4,2.8"/>
	</g>
</g>
</svg>
